<?xml version="1.0" encoding="UTF-8"?><svg id="Capa_1" xmlns="http://www.w3.org/2000/svg" xmlns:xlink="http://www.w3.org/1999/xlink" viewBox="0 0 1276.31 2069.71"><defs><style>.cls-1,.cls-2,.cls-3,.cls-4{fill:#fff;}.cls-1,.cls-2,.cls-3,.cls-5{font-family:Coda-Regular, Coda;}.cls-1,.cls-5{font-size:20.5px;}.cls-2{font-size:14px;}.cls-3{font-size:28.87px;}.cls-6{fill:#f1bf6d;}.cls-7{fill:#de7848;}.cls-8{fill:#e89e57;}.cls-9{fill:#fef0ae;}.cls-10{letter-spacing:0em;}.cls-11{fill:#75202c;}.cls-12{fill:#c7322e;}.cls-13{stroke-width:4px;}.cls-13,.cls-14,.cls-15,.cls-16{fill:none;stroke:#fff;stroke-miterlimit:10;}.cls-13,.cls-15,.cls-16{stroke-linecap:round;}.cls-17{fill:#a62b2f;}.cls-18{letter-spacing:0em;}.cls-14{stroke-dasharray:12.07 12.07;}.cls-14,.cls-15,.cls-16{stroke-width:2px;}.cls-15{stroke-dasharray:12;}.cls-19{fill:#d64e39;}.cls-5{fill:#1d1d1b;}.cls-20{fill:url(#Degradado_sin_nombre_20);}.cls-21{letter-spacing:-.05em;}.cls-22{fill:#fbf7d1;}.cls-23{letter-spacing:0em;}.cls-24{letter-spacing:0em;}.cls-25{letter-spacing:0em;}.cls-26{letter-spacing:0em;}.cls-27{fill:#fade8c;}.cls-28{letter-spacing:0em;}.cls-29{letter-spacing:0em;}.cls-30{letter-spacing:0em;}</style><linearGradient id="Degradado_sin_nombre_20" x1="419.08" y1="82.48" x2="443.62" y2="82.48" gradientUnits="userSpaceOnUse"><stop offset="0" stop-color="#75202c"/><stop offset=".13" stop-color="#a62b2f"/><stop offset=".26" stop-color="#c7322e"/><stop offset=".38" stop-color="#d64e39"/><stop offset=".52" stop-color="#de7848"/><stop offset=".63" stop-color="#e89e57"/><stop offset=".76" stop-color="#f1bf6d"/><stop offset=".86" stop-color="#fade8c"/><stop offset=".93" stop-color="#fef0ae"/><stop offset="1" stop-color="#fbf7d1"/></linearGradient></defs><line class="cls-16" x1="1091.66" y1="299.58" x2="1091.66" y2="317.18"/><circle class="cls-11" cx="1090.71" cy="362.18" r="53.8"/><path class="cls-16" d="M1136.99,318.57c23.17,24.79,22.67,63.67-1.51,87.85-24.69,24.69-64.72,24.69-89.41,0s-24.69-64.72,0-89.41"/><polygon class="cls-4" points="1135.2 329.02 1137.21 329.07 1137.43 319.21 1147.24 320.15 1147.43 318.16 1135.48 317.01 1135.2 329.02"/><text class="cls-1" transform="translate(1073.65 368.2)"><tspan x="0" y="0">JPN</tspan></text><line class="cls-16" x1="860.04" y1="299.58" x2="860.04" y2="317.18"/><circle class="cls-11" cx="859.25" cy="362.18" r="53.8"/><path class="cls-16" d="M906.24,318.57c23.17,24.79,22.67,63.67-1.51,87.85-18.52,18.52-45.66,23.15-68.49,13.89"/><polygon class="cls-4" points="904.45 329.02 906.45 329.07 906.68 319.21 916.49 320.15 916.68 318.16 904.73 317.01 904.45 329.02"/><text class="cls-1" transform="translate(842.05 368.2)"><tspan class="cls-23" x="0" y="0">R</tspan><tspan x="13.16" y="0">US</tspan></text><line class="cls-16" x1="629.97" y1="299.58" x2="629.97" y2="317.18"/><circle class="cls-11" cx="629.61" cy="362.18" r="53.8"/><path class="cls-16" d="M676.16,318.57c23.17,24.79,22.67,63.67-1.51,87.85-24.69,24.69-64.72,24.69-89.41,0-3.09-3.09-5.79-6.41-8.1-9.92"/><polygon class="cls-4" points="674.38 329.02 676.38 329.07 676.6 319.21 686.42 320.15 686.61 318.16 674.65 317.01 674.38 329.02"/><text class="cls-1" transform="translate(613.59 368.2)"><tspan x="0" y="0">IND</tspan></text><line class="cls-16" x1="407.11" y1="299.58" x2="407.11" y2="317.18"/><circle class="cls-11" cx="406.16" cy="362.18" r="53.8"/><path class="cls-16" d="M453.31,318.57c23.17,24.79,22.67,63.67-1.51,87.85-24.69,24.69-64.72,24.69-89.41,0s-24.69-64.72,0-89.41"/><polygon class="cls-4" points="451.53 329.02 453.53 329.07 453.75 319.21 463.57 320.15 463.76 318.16 451.8 317.01 451.53 329.02"/><text class="cls-1" transform="translate(384.27 368.2)"><tspan x="0" y="0">EEUU</tspan></text><line class="cls-16" x1="180.45" y1="299.58" x2="180.45" y2="308.5"/><circle class="cls-11" cx="179.5" cy="362.18" r="53.8"/><text class="cls-1" transform="translate(159.16 368.2)"><tspan x="0" y="0">CHN</tspan></text><path class="cls-16" d="M202.55,303.03c23.46,9.21,40.08,32.06,40.08,58.78,0,34.86-28.26,63.12-63.12,63.12s-63.12-28.26-63.12-63.12c0-27.49,17.57-50.88,42.1-59.54"/><polygon class="cls-4" points="205.38 313.25 207.21 312.44 203.21 303.43 212.49 300.09 211.81 298.21 200.51 302.27 205.38 313.25"/><circle class="cls-17" cx="179.5" cy="679.18" r="53.8"/><line class="cls-16" x1="180.45" y1="616.58" x2="180.45" y2="625.38"/><line class="cls-16" x1="180.45" y1="732.98" x2="180.45" y2="741.78"/><text class="cls-1" transform="translate(160.76 685.2)"><tspan x="0" y="0">BRA</tspan></text><circle class="cls-14" cx="179.5" cy="679.18" r="53.8"/><circle class="cls-19" cx="180.18" cy="996.01" r="53.8"/><text class="cls-1" transform="translate(160.85 1002.03)"><tspan x="0" y="0">GRC</tspan></text><line class="cls-16" x1="181.13" y1="933.42" x2="181.13" y2="942.22"/><line class="cls-16" x1="181.13" y1="1049.82" x2="181.13" y2="1058.61"/><line class="cls-16" x1="117.58" y1="996.02" x2="126.38" y2="996.02"/><line class="cls-16" x1="233.98" y1="996.02" x2="242.78" y2="996.02"/><circle class="cls-14" cx="180.18" cy="996.01" r="53.8"/><circle class="cls-19" cx="406.6" cy="996.01" r="53.8"/><text class="cls-1" transform="translate(387.27 1002.03)"><tspan x="0" y="0">CHL</tspan></text><line class="cls-16" x1="407.55" y1="933.42" x2="407.55" y2="942.22"/><line class="cls-16" x1="407.55" y1="1049.82" x2="407.55" y2="1058.61"/><line class="cls-16" x1="344" y1="996.02" x2="352.8" y2="996.02"/><line class="cls-16" x1="460.4" y1="996.02" x2="469.19" y2="996.02"/><circle class="cls-14" cx="406.6" cy="996.01" r="53.8"/><line class="cls-16" x1="898.33" y1="1032.13" x2="904.99" y2="1037.87"/><circle class="cls-7" cx="858.59" cy="996.01" r="53.8"/><text class="cls-1" transform="translate(843.17 1002.24)"><tspan x="0" y="0">P</tspan><tspan class="cls-23" x="12.67" y="0">R</tspan><tspan class="cls-10" x="25.82" y="0">T</tspan></text><line class="cls-16" x1="859.54" y1="933.42" x2="859.54" y2="942.22"/><line class="cls-16" x1="859.54" y1="1049.82" x2="859.54" y2="1058.61"/><line class="cls-16" x1="796" y1="996.02" x2="804.8" y2="996.02"/><line class="cls-16" x1="912.39" y1="996.02" x2="921.19" y2="996.02"/><circle class="cls-14" cx="858.59" cy="996.01" r="53.8"/><line class="cls-16" x1="1131.48" y1="1032.13" x2="1138.14" y2="1037.87"/><circle class="cls-7" cx="1091.42" cy="996.01" r="53.8"/><text class="cls-1" transform="translate(1072.09 1002.03)"><tspan x="0" y="0">NOR</tspan></text><line class="cls-16" x1="1092.37" y1="933.42" x2="1092.37" y2="942.22"/><line class="cls-16" x1="1092.37" y1="1049.82" x2="1092.37" y2="1058.61"/><line class="cls-16" x1="1028.82" y1="996.02" x2="1037.62" y2="996.02"/><line class="cls-16" x1="1145.22" y1="996.02" x2="1154.02" y2="996.02"/><circle class="cls-14" cx="1091.42" cy="996.01" r="53.8"/><line class="cls-16" x1="219.88" y1="1349.16" x2="226.54" y2="1354.91"/><line class="cls-16" x1="135.91" y1="1268.28" x2="142.57" y2="1274.03"/><circle class="cls-8" cx="180.14" cy="1313.05" r="53.8"/><text class="cls-1" transform="translate(161.64 1319.29)"><tspan x="0" y="0">H</tspan><tspan class="cls-29" x="14.06" y="0">R</tspan><tspan x="27.25" y="0">V</tspan></text><line class="cls-16" x1="181.09" y1="1250.45" x2="181.09" y2="1259.25"/><line class="cls-16" x1="181.09" y1="1366.85" x2="181.09" y2="1375.65"/><line class="cls-16" x1="117.54" y1="1313.05" x2="126.34" y2="1313.05"/><line class="cls-16" x1="233.94" y1="1313.05" x2="242.74" y2="1313.05"/><circle class="cls-14" cx="180.14" cy="1313.05" r="53.8" transform="translate(-1144.81 1280.53) rotate(-80.78)"/><line class="cls-16" x1="364.27" y1="1268.28" x2="370.93" y2="1274.03"/><line class="cls-16" x1="447.82" y1="1349.16" x2="454.48" y2="1354.91"/><circle class="cls-8" cx="407.72" cy="1313.05" r="53.8"/><text class="cls-1" transform="translate(388.48 1319.06)"><tspan x="0" y="0">DNK</tspan></text><line class="cls-16" x1="408.71" y1="1250.45" x2="408.71" y2="1259.25"/><line class="cls-16" x1="408.71" y1="1366.85" x2="408.71" y2="1375.65"/><line class="cls-16" x1="345.17" y1="1313.05" x2="353.97" y2="1313.05"/><line class="cls-16" x1="461.56" y1="1313.05" x2="470.36" y2="1313.05"/><circle class="cls-14" cx="407.76" cy="1313.05" r="53.8" transform="translate(-953.64 1505.22) rotate(-80.78)"/><line class="cls-16" x1="898.92" y1="1348.86" x2="905.58" y2="1354.6"/><line class="cls-16" x1="814.95" y1="1267.98" x2="821.61" y2="1273.73"/><line class="cls-16" x1="815.87" y1="1358.06" x2="821.62" y2="1351.4"/><circle class="cls-6" cx="859.18" cy="1312.74" r="53.8"/><text class="cls-1" transform="translate(840.68 1318.99)"><tspan x="0" y="0">HND</tspan></text><line class="cls-16" x1="860.13" y1="1250.15" x2="860.13" y2="1258.95"/><line class="cls-16" x1="860.13" y1="1366.54" x2="860.13" y2="1375.34"/><line class="cls-16" x1="796.59" y1="1312.75" x2="805.38" y2="1312.75"/><line class="cls-16" x1="912.98" y1="1312.75" x2="921.78" y2="1312.75"/><circle class="cls-14" cx="859.18" cy="1312.74" r="53.8" transform="translate(-511.16 2076.71) rotate(-85.93)"/><line class="cls-16" x1="1046.65" y1="1358.06" x2="1052.4" y2="1351.4"/><line class="cls-16" x1="1046.2" y1="1267.98" x2="1052.86" y2="1273.73"/><line class="cls-16" x1="1129.75" y1="1348.86" x2="1136.41" y2="1354.6"/><circle class="cls-6" cx="1089.65" cy="1312.74" r="53.8"/><text class="cls-1" transform="translate(1073.59 1318.76)"><tspan x="0" y="0">PRY</tspan></text><line class="cls-16" x1="1090.65" y1="1250.15" x2="1090.65" y2="1258.95"/><line class="cls-16" x1="1090.65" y1="1366.54" x2="1090.65" y2="1375.34"/><line class="cls-16" x1="1027.1" y1="1312.75" x2="1035.9" y2="1312.75"/><line class="cls-16" x1="1143.5" y1="1312.75" x2="1152.29" y2="1312.75"/><circle class="cls-14" cx="1089.7" cy="1312.74" r="53.8" transform="translate(-419.42 516.94) rotate(-22.5)"/><line class="cls-16" x1="219.88" y1="1982.36" x2="226.54" y2="1988.11"/><line class="cls-16" x1="135.91" y1="1901.49" x2="142.57" y2="1907.23"/><line class="cls-16" x1="136.83" y1="1991.57" x2="142.57" y2="1984.91"/><line class="cls-16" x1="219.34" y1="1909.05" x2="225.09" y2="1902.39"/><circle class="cls-22" cx="180.3" cy="1946.25" r="53.8"/><text class="cls-5" transform="translate(164.66 1952.49)"><tspan x="0" y="0">GRL</tspan></text><line class="cls-16" x1="181.09" y1="1883.65" x2="181.09" y2="1892.45"/><line class="cls-16" x1="181.09" y1="2000.05" x2="181.09" y2="2008.85"/><line class="cls-16" x1="117.54" y1="1946.25" x2="126.34" y2="1946.25"/><line class="cls-16" x1="233.94" y1="1946.25" x2="242.74" y2="1946.25"/><circle class="cls-14" cx="180.14" cy="1946.25" r="53.8" transform="translate(-731.09 217.09) rotate(-22.5)"/><line class="cls-16" x1="447.04" y1="1909.05" x2="452.79" y2="1902.39"/><line class="cls-16" x1="364.14" y1="1991.57" x2="369.89" y2="1984.91"/><line class="cls-16" x1="363.69" y1="1901.49" x2="370.35" y2="1907.23"/><line class="cls-16" x1="447.24" y1="1982.36" x2="453.9" y2="1988.11"/><circle class="cls-22" cx="407.14" cy="1946.25" r="53.8"/><text class="cls-5" transform="translate(386.75 1952.27)"><tspan x="0" y="0">SOM</tspan></text><line class="cls-16" x1="408.14" y1="1883.65" x2="408.14" y2="1892.45"/><line class="cls-16" x1="408.14" y1="2000.05" x2="408.14" y2="2008.85"/><line class="cls-16" x1="344.59" y1="1946.25" x2="353.39" y2="1946.25"/><line class="cls-16" x1="460.99" y1="1946.25" x2="469.78" y2="1946.25"/><circle class="cls-14" cx="407.19" cy="1946.25" r="53.8" transform="translate(-189.8 49.6) rotate(-5.65)"/><line class="cls-16" x1="219.59" y1="1664.51" x2="226.25" y2="1670.26"/><line class="cls-16" x1="135.62" y1="1583.64" x2="142.28" y2="1589.39"/><line class="cls-16" x1="136.54" y1="1673.72" x2="142.29" y2="1667.06"/><line class="cls-16" x1="219.05" y1="1591.2" x2="224.8" y2="1584.54"/><circle class="cls-27" cx="180.01" cy="1628.4" r="53.8"/><text class="cls-5" transform="translate(163.21 1634.64)"><tspan x="0" y="0">CRI</tspan></text><line class="cls-16" x1="180.8" y1="1565.8" x2="180.8" y2="1574.6"/><line class="cls-16" x1="180.8" y1="1682.2" x2="180.8" y2="1691"/><line class="cls-16" x1="117.25" y1="1628.4" x2="126.05" y2="1628.4"/><line class="cls-16" x1="233.65" y1="1628.4" x2="242.45" y2="1628.4"/><circle class="cls-14" cx="179.85" cy="1628.4" r="53.8" transform="translate(-1457.2 1692.36) rotate(-85.93)"/><line class="cls-16" x1="444.15" y1="1591.2" x2="449.9" y2="1584.54"/><line class="cls-16" x1="361.26" y1="1673.72" x2="367.01" y2="1667.06"/><line class="cls-16" x1="360.8" y1="1583.64" x2="367.46" y2="1589.39"/><line class="cls-16" x1="444.36" y1="1664.51" x2="451.02" y2="1670.26"/><circle class="cls-27" cx="404.25" cy="1628.4" r="53.8"/><text class="cls-5" transform="translate(385.31 1634.42)"><tspan x="0" y="0">URY</tspan></text><line class="cls-16" x1="405.25" y1="1565.8" x2="405.25" y2="1574.6"/><line class="cls-16" x1="405.25" y1="1682.2" x2="405.25" y2="1691"/><line class="cls-16" x1="341.7" y1="1628.4" x2="350.5" y2="1628.4"/><line class="cls-16" x1="458.1" y1="1628.4" x2="466.9" y2="1628.4"/><circle class="cls-14" cx="404.3" cy="1628.4" r="53.8" transform="translate(-592.39 278.68) rotate(-22.5)"/><line class="cls-16" x1="897.9" y1="1666.59" x2="904.57" y2="1672.34"/><line class="cls-16" x1="813.94" y1="1585.72" x2="820.6" y2="1591.47"/><line class="cls-16" x1="814.85" y1="1675.8" x2="820.6" y2="1669.14"/><line class="cls-16" x1="897.37" y1="1593.28" x2="903.12" y2="1586.62"/><circle class="cls-9" cx="857.88" cy="1630.48" r="53.8"/><text class="cls-5" transform="translate(843.86 1636.72)"><tspan x="0" y="0">ISL</tspan></text><line class="cls-16" x1="859.12" y1="1567.89" x2="859.12" y2="1576.68"/><line class="cls-16" x1="859.12" y1="1684.28" x2="859.12" y2="1693.08"/><line class="cls-16" x1="881.14" y1="1679.17" x2="884.99" y2="1687.09"/><line class="cls-16" x1="795.57" y1="1630.48" x2="804.37" y2="1630.48"/><line class="cls-16" x1="911.96" y1="1630.48" x2="920.76" y2="1630.48"/><circle class="cls-14" cx="857.88" cy="1630.48" r="53.8" transform="translate(-829.31 2370.62) rotate(-85.93)"/><line class="cls-16" x1="1129.4" y1="1593.28" x2="1135.14" y2="1586.62"/><line class="cls-16" x1="1046.5" y1="1675.8" x2="1052.25" y2="1669.14"/><line class="cls-13" x1="1046.05" y1="1585.72" x2="1052.71" y2="1591.47"/><line class="cls-16" x1="1129.6" y1="1666.59" x2="1136.26" y2="1672.34"/><line class="cls-16" x1="1113.31" y1="1679.17" x2="1117.16" y2="1687.09"/><circle class="cls-9" cx="1089.57" cy="1630.48" r="53.8"/><text class="cls-5" transform="translate(1069.65 1636.5)"><tspan x="0" y="0">BHS</tspan></text><line class="cls-16" x1="1090.49" y1="1567.89" x2="1090.49" y2="1576.68"/><line class="cls-16" x1="1090.49" y1="1684.28" x2="1090.49" y2="1693.08"/><line class="cls-16" x1="1026.95" y1="1630.48" x2="1035.75" y2="1630.48"/><line class="cls-16" x1="1143.34" y1="1630.48" x2="1152.14" y2="1630.48"/><circle class="cls-14" cx="1089.55" cy="1630.48" r="53.8" transform="translate(-614.07 2601.7) rotate(-85.93)"/><line class="cls-16" x1="408.05" y1="616.58" x2="408.05" y2="634.18"/><circle class="cls-17" cx="407.1" cy="679.18" r="53.8"/><text class="cls-1" transform="translate(389.02 685.2)"><tspan x="0" y="0">CAN</tspan></text><line class="cls-16" x1="408.05" y1="732.98" x2="408.05" y2="741.78"/><circle class="cls-14" cx="407.1" cy="679.18" r="53.8"/><line class="cls-16" x1="860.32" y1="616.58" x2="860.32" y2="634.18"/><circle class="cls-12" cx="859.95" cy="679.18" r="53.8"/><text class="cls-1" transform="translate(841.51 685.2)"><tspan x="0" y="0">ARG</tspan></text><line class="cls-16" x1="860.32" y1="732.98" x2="860.32" y2="741.78"/><line class="cls-16" x1="913.74" y1="679.18" x2="922.54" y2="679.18"/><circle class="cls-14" cx="859.95" cy="679.18" r="53.8"/><line class="cls-16" x1="1089.54" y1="616.58" x2="1089.54" y2="634.18"/><circle class="cls-12" cx="1089.07" cy="679.18" r="53.8"/><text class="cls-1" transform="translate(1072.23 685.2)"><tspan x="0" y="0">FRA</tspan></text><line class="cls-16" x1="1089.54" y1="732.98" x2="1089.54" y2="741.78"/><line class="cls-16" x1="1143.25" y1="679.18" x2="1152.05" y2="679.18"/><circle class="cls-14" cx="1089.14" cy="679.18" r="53.8"/><text class="cls-3" transform="translate(113.21 236.98)"><tspan x="0" y="0">P</tspan><tspan class="cls-25" x="17.83" y="0">O</tspan><tspan x="37.69" y="0">TENCIAS (NIVEL 1)</tspan></text><text class="cls-3" transform="translate(113.21 582.07)"><tspan class="cls-21" x="0" y="0">P</tspan><tspan class="cls-18" x="16.33" y="0">AÍSES NIVEL 2</tspan></text><text class="cls-3" transform="translate(808.1 582.07)"><tspan class="cls-21" x="0" y="0">P</tspan><tspan class="cls-18" x="16.33" y="0">AÍSES NIVEL 3</tspan></text><text class="cls-3" transform="translate(113.21 899.12)"><tspan class="cls-21" x="0" y="0">P</tspan><tspan class="cls-18" x="16.33" y="0">AÍSES NIVEL 4</tspan></text><text class="cls-3" transform="translate(808.1 899.12)"><tspan class="cls-21" x="0" y="0">P</tspan><tspan class="cls-18" x="16.33" y="0">AÍSES NIVEL 5</tspan></text><text class="cls-3" transform="translate(113.21 1216.29)"><tspan class="cls-21" x="0" y="0">P</tspan><tspan class="cls-18" x="16.33" y="0">AÍSES NIVEL 6</tspan></text><text class="cls-3" transform="translate(808.1 1216.29)"><tspan class="cls-21" x="0" y="0">P</tspan><tspan class="cls-18" x="16.33" y="0">AÍSES NIVEL 7</tspan></text><text class="cls-3" transform="translate(113.21 1533.3)"><tspan class="cls-21" x="0" y="0">P</tspan><tspan class="cls-18" x="16.33" y="0">AÍSES NIVEL 8</tspan></text><text class="cls-3" transform="translate(113.21 1849.09)"><tspan class="cls-21" x="0" y="0">P</tspan><tspan class="cls-18" x="16.33" y="0">AÍSES NIVEL 10</tspan></text><text class="cls-3" transform="translate(808.1 1533.3)"><tspan class="cls-21" x="0" y="0">P</tspan><tspan class="cls-18" x="16.33" y="0">AÍSES NIVEL 9</tspan></text><text class="cls-2" transform="translate(500.84 86.94)"><tspan x="0" y="0">Ni</tspan><tspan class="cls-30" x="13.36" y="0">v</tspan><tspan x="20.21" y="0">el </tspan><tspan class="cls-28" x="34.18" y="0">d</tspan><tspan x="42.14" y="0">el </tspan><tspan class="cls-24" x="56.11" y="0">p</tspan><tspan x="64.06" y="0">aís emisor</tspan></text><text class="cls-2" transform="translate(163.07 86.94)"><tspan x="0" y="0">Emisiones </tspan><tspan class="cls-28" x="67.47" y="0">d</tspan><tspan x="75.43" y="0">e las potencias</tspan></text><text class="cls-2" transform="translate(163.07 124.44)"><tspan x="0" y="0">Ot</tspan><tspan class="cls-26" x="14.42" y="0">r</tspan><tspan x="19.2" y="0">os </tspan><tspan class="cls-24" x="37.05" y="0">p</tspan><tspan x="45" y="0">aíses</tspan></text><line class="cls-16" x1="456.22" y1="87.74" x2="456.22" y2="77.22"/><line class="cls-16" x1="470.2" y1="87.74" x2="470.2" y2="77.22"/><line class="cls-16" x1="483.68" y1="87.74" x2="483.68" y2="77.22"/><line class="cls-16" x1="116.38" y1="82.1" x2="147.26" y2="82.1"/><polygon class="cls-4" points="140.64 90.28 139.27 88.81 146.5 82.1 139.27 75.39 140.64 73.92 149.43 82.1 140.64 90.28"/><line class="cls-15" x1="116.38" y1="121.29" x2="149.43" y2="121.29"/><rect class="cls-20" x="419.08" y="76.82" width="24.54" height="11.32" rx="5.66" ry="5.66"/></svg>