<?xml version="1.0" encoding="UTF-8"?><svg id="Capa_1" xmlns="http://www.w3.org/2000/svg" xmlns:xlink="http://www.w3.org/1999/xlink" viewBox="0 0 1683.78 1190.55"><defs><style>.cls-1{font-family:Coda-Regular, Coda;font-size:20px;}.cls-1,.cls-2,.cls-3{fill:#fff;}.cls-2{font-family:Coda-ExtraBold, Coda;font-size:60px;font-weight:700;}.cls-4,.cls-5{fill:none;stroke:#fff;stroke-miterlimit:10;}.cls-6{fill:#7e152c;}.cls-7{fill:#e7402d;}.cls-5{stroke-width:1.25px;}.cls-8{fill:url(#Degradado_sin_nombre_11);}.cls-9{letter-spacing:0em;}.cls-10{letter-spacing:0em;}.cls-11{letter-spacing:0em;}.cls-12{letter-spacing:0em;}</style><linearGradient id="Degradado_sin_nombre_11" x1="505.01" y1="85.35" x2="561.74" y2="85.35" gradientUnits="userSpaceOnUse"><stop offset="0" stop-color="#e7402d"/><stop offset="1" stop-color="#7e152c"/></linearGradient></defs><ellipse class="cls-4" cx="66.46" cy="85.47" rx="10.68" ry="6.75"/><rect class="cls-3" x="61.95" y="30.52" width="8.28" height="26.35" rx="4.14" ry="4.14" transform="translate(22.4 109.78) rotate(-90)"/><text class="cls-1" transform="translate(95.73 50.75)"><tspan x="0" y="0">P</tspan><tspan class="cls-9" x="12.35" y="0">r</tspan><tspan x="19.18" y="0">omedio anual </tspan><tspan class="cls-11" x="144.31" y="0">d</tspan><tspan x="155.67" y="0">e días </tspan><tspan class="cls-11" x="212.2" y="0">d</tspan><tspan x="223.56" y="0">e más </tspan><tspan class="cls-11" x="280.55" y="0">d</tspan><tspan x="291.91" y="0">e 40°C</tspan></text><text class="cls-1" transform="translate(95.73 92.46)"><tspan x="0" y="0">P</tspan><tspan class="cls-9" x="12.35" y="0">r</tspan><tspan x="19.18" y="0">omedio anual </tspan><tspan class="cls-11" x="144.31" y="0">d</tspan><tspan x="155.67" y="0">e días </tspan><tspan class="cls-11" x="212.2" y="0">d</tspan><tspan x="223.56" y="0">e sequía</tspan></text><circle class="cls-7" cx="386.4" cy="556.72" r="201.91"/><circle class="cls-6" cx="1238.77" cy="559.09" r="201.91"/><ellipse class="cls-5" cx="242.88" cy="377.88" rx="8.41" ry="13.32" transform="translate(-183.54 236.64) rotate(-38.94)"/><ellipse class="cls-5" cx="321.92" cy="336.41" rx="8.41" ry="13.32" transform="translate(-82.4 105.48) rotate(-16.53)"/><ellipse class="cls-5" cx="294.06" cy="346.48" rx="8.41" ry="13.32" transform="translate(-112.26 142.95) rotate(-23.07)"/><ellipse class="cls-5" cx="267.29" cy="360.38" rx="8.41" ry="13.33" transform="translate(-147.7 189.79) rotate(-31.09)"/><ellipse class="cls-5" cx="350.61" cy="329.9" rx="8.41" ry="13.32" transform="translate(-49.66 62.42) rotate(-9.5)"/><ellipse class="cls-5" cx="378.59" cy="327.21" rx="8.41" ry="13.32" transform="translate(-12.5 15.05) rotate(-2.24)"/><ellipse class="cls-5" cx="220.83" cy="397.91" rx="8.41" ry="13.32" transform="translate(-219.45 282.81) rotate(-46.32)"/><ellipse class="cls-5" cx="184.19" cy="448" rx="8.41" ry="13.32" transform="translate(-296.99 392.34) rotate(-61.05)"/><ellipse class="cls-5" cx="201.3" cy="421.16" rx="8.41" ry="13.32" transform="translate(-258.19 338.89) rotate(-54.3)"/><ellipse class="cls-5" cx="171.28" cy="476.31" rx="8.41" ry="13.32" transform="translate(-334.65 460.99) rotate(-68.49)"/><ellipse class="cls-5" cx="162.61" cy="505.79" rx="8.41" ry="13.32" transform="translate(-366.94 548.72) rotate(-76.81)"/><ellipse class="cls-5" cx="157.92" cy="532.79" rx="8.41" ry="13.32" transform="translate(-389.54 628.13) rotate(-83.37)"/><ellipse class="cls-5" cx="156.76" cy="559.71" rx="13.32" ry="8.41" transform="translate(-.61 .17) rotate(-.06)"/><rect class="cls-3" x="377.64" y="769.66" width="10.33" height="32.86" rx="5.16" ry="5.16"/><rect class="cls-3" x="349.02" y="767.51" width="10.33" height="32.86" rx="5.16" ry="5.16" transform="translate(88.36 -34.2) rotate(6.31)"/><rect class="cls-3" x="321.13" y="761.49" width="10.33" height="32.86" rx="5.16" ry="5.16" transform="translate(161.59 -49.43) rotate(11.5)"/><path class="cls-3" d="M290.91,782.78h0c-2.65-1.05-3.96-4.04-2.91-6.7l8.28-20.96c1.05-2.65,4.05-3.96,6.7-2.91h0c2.65,1.05,3.96,4.04,2.91,6.7l-8.28,20.96c-1.05,2.65-4.05,3.96-6.7,2.91Z"/><rect class="cls-3" x="265.41" y="738.05" width="10.33" height="32.86" rx="5.16" ry="5.16" transform="translate(412.11 -34.45) rotate(29.9)"/><rect class="cls-3" x="241.66" y="723.02" width="10.33" height="32.86" rx="5.16" ry="5.16" transform="translate(495.28 .54) rotate(37.04)"/><rect class="cls-3" x="220.11" y="704.07" width="10.33" height="32.86" rx="5.16" ry="5.16" transform="translate(556.14 41.97) rotate(43.36)"/><rect class="cls-3" x="201.48" y="682.46" width="10.33" height="32.86" rx="5.16" ry="5.16" transform="translate(593.59 81.3) rotate(48.54)"/><path class="cls-3" d="M175.47,681.45h0c-1.49-2.43-.72-5.61,1.71-7.1l19.23-11.74c2.43-1.49,5.61-.72,7.1,1.72h0c1.49,2.43.72,5.61-1.71,7.1l-19.23,11.74c-2.43,1.49-5.61.72-7.1-1.72Z"/><rect class="cls-3" x="171.12" y="630.18" width="10.33" height="32.86" rx="5.16" ry="5.16" transform="translate(702.2 231.17) rotate(66.94)"/><rect class="cls-3" x="404.84" y="768.86" width="10.33" height="32.86" rx="5.16" ry="5.16" transform="translate(881.72 1535.13) rotate(175.4)"/><rect class="cls-3" x="433.19" y="764.43" width="10.33" height="32.86" rx="5.16" ry="5.16" transform="translate(1016.68 1464.55) rotate(169.08)"/><rect class="cls-3" x="460.51" y="756.18" width="10.33" height="32.86" rx="5.16" ry="5.16" transform="translate(1127.35 1385.77) rotate(163.9)"/><path class="cls-3" d="M501.33,774.62h0c2.56-1.26,3.62-4.35,2.36-6.91l-9.93-20.22c-1.26-2.56-4.35-3.62-6.92-2.36h0c-2.56,1.26-3.62,4.35-2.36,6.91l9.93,20.22c1.26,2.56,4.35,3.62,6.92,2.36Z"/><rect class="cls-3" x="514.17" y="728.35" width="10.33" height="32.86" rx="5.16" ry="5.16" transform="translate(1369.21 1064.35) rotate(145.5)"/><rect class="cls-3" x="536.63" y="711.46" width="10.33" height="32.86" rx="5.16" ry="5.16" transform="translate(1430.37 911.73) rotate(138.35)"/><rect class="cls-3" x="556.59" y="690.84" width="10.33" height="32.86" rx="5.16" ry="5.16" transform="translate(1463.21 763.65) rotate(132.04)"/><rect class="cls-3" x="573.43" y="667.8" width="10.33" height="32.86" rx="5.16" ry="5.16" transform="translate(1473.12 631.66) rotate(126.85)"/><path class="cls-3" d="M608.27,664.35h0c1.29-2.55.27-5.65-2.27-6.94l-20.11-10.16c-2.55-1.29-5.65-.26-6.94,2.28h0c-1.29,2.55-.27,5.65,2.27,6.94l20.11,10.16c2.55,1.29,5.65.26,6.94-2.28Z"/><rect class="cls-3" x="599.5" y="613.25" width="10.33" height="32.86" rx="5.16" ry="5.16" transform="translate(1393.35 255.41) rotate(108.45)"/><rect class="cls-3" x="606.51" y="586.68" width="10.33" height="32.86" rx="5.16" ry="5.16" transform="translate(1332.65 136.12) rotate(102.47)"/><rect class="cls-3" x="610.6" y="558.27" width="10.33" height="32.86" rx="5.16" ry="5.16" transform="translate(1253.21 24.15) rotate(96.16)"/><rect class="cls-3" x="610.74" y="529.74" width="10.33" height="32.86" rx="5.16" ry="5.16" transform="translate(1172.48 -60.34) rotate(90.98)"/><path class="cls-3" d="M628.3,512.67h0c-.45-2.82-3.09-4.74-5.91-4.29l-22.25,3.56c-2.82.45-4.74,3.1-4.29,5.92h0c.45,2.82,3.09,4.74,5.91,4.29l22.25-3.56c2.82-.45,4.74-3.1,4.29-5.92Z"/><rect class="cls-3" x="599.89" y="470.26" width="10.33" height="32.86" rx="5.16" ry="5.16" transform="translate(888.2 -236.35) rotate(72.57)"/><rect class="cls-3" x="1230.01" y="772.03" width="10.33" height="32.86" rx="5.16" ry="5.16"/><rect class="cls-3" x="1201.39" y="769.88" width="10.33" height="32.86" rx="5.16" ry="5.16" transform="translate(93.79 -127.92) rotate(6.31)"/><rect class="cls-3" x="1173.5" y="763.86" width="10.33" height="32.86" rx="5.16" ry="5.16" transform="translate(179.16 -219.26) rotate(11.5)"/><path class="cls-3" d="M1143.27,785.15h0c-2.65-1.05-3.96-4.04-2.91-6.7l8.28-20.96c1.05-2.65,4.05-3.96,6.7-2.91h0c2.65,1.05,3.96,4.04,2.91,6.7l-8.28,20.96c-1.05,2.65-4.05,3.96-6.7,2.91Z"/><rect class="cls-3" x="1117.77" y="740.42" width="10.33" height="32.86" rx="5.16" ry="5.16" transform="translate(526.74 -459.03) rotate(29.9)"/><rect class="cls-3" x="1094.03" y="725.39" width="10.33" height="32.86" rx="5.16" ry="5.16" transform="translate(668.74 -512.47) rotate(37.04)"/><rect class="cls-3" x="1072.48" y="706.44" width="10.33" height="32.86" rx="5.16" ry="5.16" transform="translate(790.39 -542.57) rotate(43.36)"/><rect class="cls-3" x="1053.85" y="684.82" width="10.33" height="32.86" rx="5.16" ry="5.16" transform="translate(883.38 -556.69) rotate(48.54)"/><path class="cls-3" d="M1027.83,683.82h0c-1.49-2.43-.72-5.61,1.71-7.1l19.23-11.74c2.43-1.49,5.61-.72,7.1,1.72h0c1.49,2.43.72,5.61-1.71,7.1l-19.23,11.74c-2.43,1.49-5.61.72-7.1-1.72Z"/><rect class="cls-3" x="1023.48" y="632.55" width="10.33" height="32.86" rx="5.16" ry="5.16" transform="translate(1222.93 -551.66) rotate(66.94)"/><rect class="cls-3" x="1257.2" y="771.23" width="10.33" height="32.86" rx="5.16" ry="5.16" transform="translate(2583.89 1471.43) rotate(175.4)"/><rect class="cls-3" x="1285.55" y="766.8" width="10.33" height="32.86" rx="5.16" ry="5.16" transform="translate(2706.42 1307.79) rotate(169.08)"/><rect class="cls-3" x="1312.87" y="758.55" width="10.33" height="32.86" rx="5.16" ry="5.16" transform="translate(2799.3 1154.03) rotate(163.9)"/><path class="cls-3" d="M1353.7,776.99h0c2.56-1.26,3.62-4.35,2.36-6.91l-9.93-20.22c-1.26-2.56-4.35-3.62-6.92-2.36h0c-2.56,1.26-3.62,4.35-2.36,6.91l9.93,20.22c1.26,2.56,4.35,3.62,6.92,2.36Z"/><rect class="cls-3" x="1366.54" y="730.72" width="10.33" height="32.86" rx="5.16" ry="5.16" transform="translate(2925.33 585.83) rotate(145.5)"/><rect class="cls-3" x="1389" y="713.83" width="10.33" height="32.86" rx="5.16" ry="5.16" transform="translate(2921.22 349.42) rotate(138.35)"/><rect class="cls-3" x="1408.95" y="693.21" width="10.33" height="32.86" rx="5.16" ry="5.16" transform="translate(2888.09 134.54) rotate(132.04)"/><rect class="cls-3" x="1425.79" y="670.17" width="10.33" height="32.86" rx="5.16" ry="5.16" transform="translate(2838.62 -46.58) rotate(126.85)"/><path class="cls-3" d="M1460.63,666.72h0c1.29-2.55.27-5.65-2.27-6.94l-20.11-10.16c-2.55-1.29-5.65-.26-6.94,2.28h0c-1.29,2.55-.27,5.65,2.27,6.94l20.11,10.16c2.55,1.29,5.65.26,6.94-2.28Z"/><rect class="cls-3" x="1451.86" y="615.62" width="10.33" height="32.86" rx="5.16" ry="5.16" transform="translate(2517.74 -550.02) rotate(108.45)"/><rect class="cls-3" x="1458.88" y="589.05" width="10.33" height="32.86" rx="5.16" ry="5.16" transform="translate(2371.42 -693.25) rotate(102.47)"/><rect class="cls-3" x="1462.96" y="560.64" width="10.33" height="32.86" rx="5.16" ry="5.16" transform="translate(2199.37 -820.67) rotate(96.16)"/><rect class="cls-3" x="1463.1" y="532.11" width="10.33" height="32.86" rx="5.16" ry="5.16" transform="translate(2041.74 -910.17) rotate(90.98)"/><path class="cls-3" d="M1480.66,515.04h0c-.45-2.82-3.09-4.74-5.91-4.29l-22.25,3.56c-2.82.45-4.74,3.1-4.29,5.92h0c.45,2.82,3.09,4.74,5.91,4.29l22.25-3.56c2.82-.45,4.74-3.1,4.29-5.92Z"/><rect class="cls-3" x="1452.26" y="472.63" width="10.33" height="32.86" rx="5.16" ry="5.16" transform="translate(1487.55 -1047.93) rotate(72.57)"/><rect class="cls-3" x="1441.86" y="446.03" width="10.33" height="32.86" rx="5.16" ry="5.16" transform="translate(1292.04 -1048.74) rotate(66.42)"/><rect class="cls-3" x="1428.45" y="420.66" width="10.33" height="32.86" rx="5.16" ry="5.16" transform="translate(1098.06 -1023.63) rotate(60.11)"/><rect class="cls-3" x="1411.77" y="397.51" width="10.33" height="32.86" rx="5.16" ry="5.16" transform="translate(941.45 -983.55) rotate(54.92)"/><path class="cls-3" d="M1407.24,379.56h0c-2.02-2.02-5.29-2.01-7.3.01l-15.9,15.97c-2.01,2.02-2.01,5.29.01,7.31h0c2.02,2.02,5.29,2.01,7.3-.01l15.9-15.97c2.01-2.02,2.01-5.29-.01-7.31Z"/><rect class="cls-3" x="1368" y="355.81" width="10.33" height="32.86" rx="5.16" ry="5.16" transform="translate(491.16 -744.1) rotate(36.52)"/><ellipse class="cls-5" cx="1096.69" cy="377.76" rx="8.41" ry="13.32" transform="translate(6.28 773.27) rotate(-38.94)"/><ellipse class="cls-5" cx="1175.73" cy="336.29" rx="8.41" ry="13.32" transform="translate(-47.09 348.36) rotate(-16.53)"/><ellipse class="cls-5" cx="1147.87" cy="346.36" rx="8.41" ry="13.32" transform="translate(-43.92 477.54) rotate(-23.07)"/><ellipse class="cls-5" cx="1121.1" cy="360.26" rx="8.41" ry="13.33" transform="translate(-25 630.66) rotate(-31.09)"/><ellipse class="cls-5" cx="1204.42" cy="329.78" rx="8.41" ry="13.32" transform="translate(-37.92 203.39) rotate(-9.5)"/><ellipse class="cls-5" cx="1287.7" cy="332.06" rx="13.32" ry="8.41" transform="translate(697.74 1523.86) rotate(-78.12)"/><ellipse class="cls-5" cx="1232.4" cy="327.09" rx="8.41" ry="13.32" transform="translate(-11.84 48.42) rotate(-2.24)"/><ellipse class="cls-5" cx="1260.63" cy="327.93" rx="13.32" ry="8.41" transform="translate(813.37 1551.33) rotate(-84.5)"/><ellipse class="cls-5" cx="1074.64" cy="397.79" rx="8.41" ry="13.32" transform="translate(44.77 900.25) rotate(-46.32)"/><ellipse class="cls-5" cx="1038" cy="447.88" rx="8.41" ry="13.32" transform="translate(143.67 1139.41) rotate(-61.05)"/><ellipse class="cls-5" cx="1055.11" cy="421.04" rx="8.41" ry="13.32" transform="translate(97.52 1032.24) rotate(-54.3)"/><ellipse class="cls-5" cx="1025.1" cy="476.19" rx="8.41" ry="13.32" transform="translate(206.15 1255.24) rotate(-68.49)"/><ellipse class="cls-5" cx="1016.42" cy="505.67" rx="8.41" ry="13.32" transform="translate(292.2 1379.92) rotate(-76.81)"/><ellipse class="cls-5" cx="1011.73" cy="532.67" rx="8.41" ry="13.32" transform="translate(365.79 1476.13) rotate(-83.37)"/><ellipse class="cls-5" cx="1010.57" cy="559.59" rx="13.32" ry="8.41" transform="translate(-.61 1.1) rotate(-.06)"/><text class="cls-2" transform="translate(302.26 582.73)"><tspan x="0" y="0">2020</tspan></text><text class="cls-2" transform="translate(1152.79 582.73)"><tspan x="0" y="0">2060</tspan></text><path class="cls-3" d="M1013.64,770.01c-12.64-13.9-7.72-8.25-20.38-22.13-2.16-2.37-4.57-4.27-7.97-4.28-4.42-.01-7.87,1.72-9.85,5.82-2.03,4.21-1.32,8.1,1.75,11.53,5.06,5.63,10.2,11.2,15.29,16.8,30,32.3,64.87,58,104.48,77.24,41,19.92,84.34,31.25,129.79,34.49,47.3,3.37,93.41-2.74,138.36-17.72,6.09-2.03,12.06-4.4,18.81-6.88-3.75,10.27-7.31,19.78-10.68,29.35-2.37,6.73,1.74,13.4,8.47,14.11,4.88.51,9.29-2.41,11.2-7.54,2.87-7.68,5.68-15.38,8.49-23.08,3.95-10.82,7.95-21.62,11.76-32.49,1.82-5.21-.34-10.07-5.17-12.62-1.6-.85-3.38-1.03-5.11-1.28-18.59-2.71-37.19-5.38-55.78-8.07-3.17-.46-6.25-.4-8.88,1.75-3.42,2.8-4.99,6.33-3.91,10.75,1.11,4.54,4.12,7.1,8.67,7.79,7.49,1.14,14.99,2.18,22.48,3.27,1.3.19,2.6.44,4.62.79-5.8,2.75-11.25,4.34-16.62,6.05-21.12,6.74-42.73,11.4-64.77,13.73-31.41,3.32-62.72,2.35-93.87-3.07-30.97-5.38-60.63-14.88-88.94-28.49-20.24-9.74-39.34-21.39-57.18-35.08-12.36-9.48-24.19-19.59-35.06-30.75Z"/><path class="cls-3" d="M157.44,768.04c-9.56-9.09-13.47-12.83-20.95-21.33-2.12-2.41-5.19-4.8-8.59-4.62-4.41.24-10.37,2.52-12.11,6.72-1.79,4.32-1.1,5.75,1.95,9.2,5.03,5.69,11.11,11.96,16.52,17.26,1.43,1.28,17.26,17,36.43,31.19,38.12,28.2,80.04,48.23,125.95,59.95,6.22,1.59,12.53,2.82,19.54,4.39-8.71,6.61-16.85,12.68-24.86,18.91-5.63,4.38-5.79,12.21-.51,16.45,3.83,3.07,9.11,3,13.5-.28,6.56-4.91,13.1-9.86,19.62-14.82,9.17-6.97,18.38-13.88,27.47-20.96,4.35-3.39,5.17-8.65,2.48-13.41-.89-1.58-2.28-2.69-3.6-3.84-14.17-12.34-28.37-24.64-42.55-36.96-2.42-2.1-5.04-3.71-8.41-3.33-4.39.5-7.62,2.63-9.11,6.92-1.53,4.42-.37,8.2,3.08,11.25,5.68,5.01,11.43,9.94,17.14,14.91.99.86,1.94,1.78,3.45,3.16-6.36-.83-11.81-2.44-17.25-3.9-21.41-5.76-42.1-13.53-61.9-23.49-28.21-14.2-53.68-32.34-77.29-53.36Z"/><text class="cls-1" transform="translate(577.62 52.38)"><tspan x="0" y="0">P</tspan><tspan class="cls-9" x="12.35" y="0">r</tspan><tspan x="19.18" y="0">esipitación anual p</tspan><tspan class="cls-9" x="187.27" y="0">r</tspan><tspan x="194.09" y="0">omedio (mm/día)</tspan></text><g id="_x32_jLJRl"><path class="cls-3" d="M549.42,48.04c-3.3,0-6.6,0-9.9,0-.62,0-1.25.03-1.87-.03-1.71-.17-2.81-1.32-2.81-2.89,0-1.57,1.09-2.7,2.82-2.87.71-.07,1.44-.04,2.15-.04,3.2,0,6.4,0,9.78,0-.44-1.15-1.36-1.65-1.99-2.38-.34-.4-.75-.74-1.1-1.13-1.25-1.42-1.29-3.02-.14-4.27,1.1-1.19,2.9-1.3,4.27-.08,1.57,1.4,3.02,2.94,4.52,4.42,1.77,1.76,3.51,3.54,5.3,5.27.81.78.77,1.41,0,2.17-3.22,3.15-6.39,6.35-9.62,9.49-1.39,1.35-3.19,1.39-4.37.22-1.28-1.27-1.28-3.02.16-4.47,1-1.01,2.16-1.86,3.24-2.78-.15-.21-.3-.42-.45-.63Z"/></g><text class="cls-1" transform="translate(577.62 91.44)"><tspan x="0" y="0">Ni</tspan><tspan class="cls-12" x="19.08" y="0">v</tspan><tspan x="28.87" y="0">eles </tspan><tspan class="cls-11" x="69.99" y="0">d</tspan><tspan x="81.36" y="0">e aumento </tspan><tspan class="cls-11" x="180.25" y="0">d</tspan><tspan x="191.62" y="0">e tempe</tspan><tspan class="cls-10" x="263.95" y="0">r</tspan><tspan x="270.81" y="0">atu</tspan><tspan class="cls-10" x="299.84" y="0">r</tspan><tspan x="306.71" y="0">a</tspan></text><path class="cls-8" d="M561.74,85.34c0,5.77-5.84,10.45-13.04,10.45h-30.66c-7.2,0-13.03-4.68-13.03-10.45s5.83-10.44,13.03-10.44h30.66c7.2,0,13.04,4.67,13.04,10.44Z"/></svg>