<?xml version="1.0" encoding="UTF-8"?><svg id="Capa_1" xmlns="http://www.w3.org/2000/svg" viewBox="0 0 1683.78 1190.55"><defs><style>.cls-1{fill:#fff;font-size:20px;}.cls-1,.cls-2{font-family:Coda-Regular, Coda;}.cls-3,.cls-4,.cls-5,.cls-6,.cls-7{fill:none;stroke-miterlimit:10;}.cls-3,.cls-4,.cls-5,.cls-7{stroke-width:4.78px;}.cls-3,.cls-6{stroke:#fff;}.cls-8{fill:#82368c;}.cls-9{fill:#d41f16;}.cls-4{stroke:#d41f16;}.cls-2{fill:#fdfdfd;font-size:19px;}.cls-5{stroke:#82368c;}.cls-10{letter-spacing:0em;}.cls-11{letter-spacing:-.01em;}.cls-12{letter-spacing:0em;}.cls-13{letter-spacing:0em;}.cls-14{letter-spacing:0em;}.cls-15{fill:#009fe3;}.cls-6{stroke-width:2.39px;}.cls-7{stroke:#009fe3;}</style></defs><rect x="-12.93" y="-10.25" width="1706.88" height="1204.73"/><text class="cls-2" transform="translate(76.54 54.77)"><tspan x="0" y="0">CO2</tspan></text><text class="cls-2" transform="translate(191.46 54.77)"><tspan x="0" y="0">CH4</tspan></text><text class="cls-2" transform="translate(307.57 54.77)"><tspan x="0" y="0">NOx</tspan></text><rect class="cls-9" x="36.05" y="35.28" width="28.98" height="28.98"/><rect class="cls-15" x="152.36" y="35.28" width="28.98" height="28.98"/><rect class="cls-8" x="268.67" y="35.28" width="28.98" height="28.98"/><text class="cls-1" transform="translate(1451.19 904.51)"><tspan x="0" y="0">De</tspan><tspan class="cls-13" x="24.73" y="0">f</tspan><tspan x="30.94" y="0">o</tspan><tspan class="cls-10" x="42.38" y="0">r</tspan><tspan x="49.21" y="0">estación</tspan></text><circle class="cls-6" cx="1507.9" cy="716.34" r="123.04"/><polygon class="cls-3" points="1478.3 748.42 1507.91 680.33 1537.51 748.42 1478.48 748.42 1478.3 748.42"/><polyline class="cls-4" points="1494.46 711.33 1507.91 680.33 1521.41 711.33"/><text class="cls-1" transform="translate(134.75 904.51)"><tspan x="0" y="0">T</tspan><tspan class="cls-12" x="9.56" y="0">r</tspan><tspan x="16.43" y="0">ansporte</tspan></text><polygon class="cls-3" points="127.29 768.5 177.98 651.91 228.67 768.5 127.59 768.5 127.29 768.5"/><polyline class="cls-4" points="154.95 704.99 177.98 651.91 201.09 704.99"/><polyline class="cls-5" points="149.5 717.34 127.59 768.5 169.87 768.49"/><circle class="cls-6" cx="177.98" cy="716.34" r="123.04"/><text class="cls-1" transform="translate(462.83 498.28)"><tspan x="0" y="0">Gana</tspan><tspan class="cls-14" x="46.47" y="0">d</tspan><tspan x="57.84" y="0">ería</tspan></text><circle class="cls-6" cx="503.98" cy="310.1" r="123.04"/><polygon class="cls-3" points="442.29 375.53 503.98 233.64 565.68 375.53 442.66 375.53 442.29 375.53"/><polyline class="cls-4" points="475.96 298.24 503.98 233.64 532.12 298.24"/><polyline class="cls-5" points="469.32 313.27 442.66 375.53 494.11 375.52"/><polyline class="cls-7" points="538.73 313.27 565.68 375.53 514.22 375.52"/><text class="cls-1" transform="translate(1070.87 498.28)"><tspan class="cls-11" x="0" y="0">V</tspan><tspan x="11.75" y="0">erte</tspan><tspan class="cls-14" x="47.51" y="0">d</tspan><tspan x="58.88" y="0">e</tspan><tspan class="cls-10" x="69.88" y="0">r</tspan><tspan x="76.71" y="0">os y gestión </tspan><tspan class="cls-14" x="187.49" y="0">d</tspan><tspan x="198.86" y="0">e </tspan><tspan class="cls-10" x="33.7" y="24">r</tspan><tspan x="40.52" y="24">esiduos sóli</tspan><tspan class="cls-14" x="147.09" y="24">d</tspan><tspan x="158.46" y="24">os</tspan></text><circle class="cls-6" cx="1177.75" cy="310.1" r="123.04"/><polygon class="cls-3" points="1116.05 375.53 1177.75 233.64 1239.44 375.53 1116.42 375.53 1116.05 375.53"/><polyline class="cls-4" points="1149.72 298.24 1177.75 233.64 1205.88 298.24"/><polyline class="cls-5" points="1143.09 313.27 1116.42 375.53 1167.87 375.52"/><polyline class="cls-7" points="1212.49 313.27 1239.44 375.53 1187.99 375.52"/><text class="cls-1" transform="translate(723.35 498.28)"><tspan x="0" y="0">Ext</tspan><tspan class="cls-12" x="27.53" y="0">r</tspan><tspan x="34.39" y="0">a</tspan><tspan class="cls-13" x="45.23" y="0">c</tspan><tspan x="55.74" y="0">ción y t</tspan><tspan class="cls-12" x="119.13" y="0">r</tspan><tspan x="126" y="0">ansporte </tspan><tspan class="cls-14" x="210.02" y="0">d</tspan><tspan x="221.39" y="0">e </tspan><tspan class="cls-13" x="25.66" y="24">c</tspan><tspan x="36.17" y="24">ombustibles </tspan><tspan class="cls-13" x="151.43" y="24">f</tspan><tspan x="157.64" y="24">ósiles</tspan></text><circle class="cls-6" cx="841.49" cy="310.1" r="123.04"/><polygon class="cls-3" points="779.8 375.53 841.49 233.64 903.19 375.53 780.17 375.53 779.8 375.53"/><polyline class="cls-7" points="876.24 313.27 903.19 375.53 851.74 375.52"/><text class="cls-1" transform="translate(713.39 904.51)"><tspan x="0" y="0">Gestión </tspan><tspan class="cls-14" x="73.2" y="0">d</tspan><tspan x="84.57" y="0">e </tspan><tspan class="cls-10" x="99.47" y="0">r</tspan><tspan x="106.3" y="0">esiduos líqui</tspan><tspan class="cls-14" x="219.34" y="0">d</tspan><tspan x="230.7" y="0">os </tspan><tspan x="45.88" y="24">(aguas </tspan><tspan class="cls-10" x="110.85" y="24">r</tspan><tspan x="117.68" y="24">esiduales)</tspan></text><polygon class="cls-3" points="790.8 768.5 841.49 651.91 892.18 768.5 791.11 768.5 790.8 768.5"/><polyline class="cls-4" points="818.47 704.99 841.49 651.91 864.61 704.99"/><polyline class="cls-5" points="813.02 717.34 791.11 768.5 833.38 768.49"/><polyline class="cls-7" points="870.04 717.34 892.18 768.5 849.91 768.49"/><circle class="cls-6" cx="841.49" cy="716.34" r="123.04"/><text class="cls-1" transform="translate(1463.58 498.28)"><tspan x="0" y="0">Agricultu</tspan><tspan class="cls-12" x="81.29" y="0">r</tspan><tspan x="88.15" y="0">a</tspan></text><polygon class="cls-3" points="1446.21 375.53 1507.9 233.64 1569.6 375.53 1446.58 375.53 1446.21 375.53"/><polyline class="cls-5" points="1473.25 313.27 1446.58 375.53 1498.03 375.52"/><polyline class="cls-7" points="1542.65 313.27 1569.6 375.53 1518.15 375.52"/><circle class="cls-6" cx="1507.9" cy="310.1" r="123.04"/><text class="cls-1" transform="translate(1142.1 904.51)"><tspan x="0" y="0">Industria</tspan></text><polygon class="cls-3" points="1127.06 768.5 1177.75 651.91 1228.44 768.5 1127.36 768.5 1127.06 768.5"/><polyline class="cls-4" points="1154.72 704.99 1177.75 651.91 1200.86 704.99"/><polyline class="cls-5" points="1149.27 717.34 1127.36 768.5 1169.63 768.49"/><circle class="cls-6" cx="1177.75" cy="716.34" r="123.04"/><text class="cls-1" transform="translate(396.67 904.51)"><tspan x="0" y="0">Gene</tspan><tspan class="cls-12" x="46.81" y="0">r</tspan><tspan x="53.67" y="0">ación </tspan><tspan class="cls-14" x="107.13" y="0">d</tspan><tspan x="118.5" y="0">e electricidad</tspan></text><polygon class="cls-3" points="453.29 768.5 503.98 651.91 554.67 768.5 453.6 768.5 453.29 768.5"/><polyline class="cls-4" points="480.96 704.99 503.98 651.91 527.1 704.99"/><polyline class="cls-5" points="475.5 717.34 453.6 768.5 495.87 768.49"/><polyline class="cls-7" points="532.53 717.34 554.67 768.5 512.4 768.49"/><circle class="cls-6" cx="503.98" cy="716.34" r="123.04"/><text class="cls-1" transform="translate(52.84 498.28)"><tspan x="0" y="0">Quema </tspan><tspan class="cls-14" x="68.24" y="0">d</tspan><tspan x="79.61" y="0">e </tspan><tspan class="cls-13" x="94.51" y="0">c</tspan><tspan x="105.02" y="0">ombustibles </tspan><tspan class="cls-13" x="220.28" y="0">f</tspan><tspan x="226.49" y="0">ósiles</tspan></text><polygon class="cls-3" points="91.66 392.45 177.84 194.24 264.02 392.45 92.18 392.45 91.66 392.45"/><polyline class="cls-4" points="138.7 284.48 177.84 194.24 217.14 284.48"/><polyline class="cls-5" points="129.43 305.48 92.18 392.45 164.05 392.44"/><polyline class="cls-7" points="226.38 305.48 264.02 392.45 192.15 392.44"/><circle class="cls-6" cx="177.98" cy="310.1" r="123.04"/></svg>